PathFileType	4	(X/Y/Z)	Captury_Subj1_walk03.trc
DataRate	CameraRate	NumFrames	NumMarkers	Units	OrigDataRate	OrigDataStartFrame	OrigNumFrames
100.0	100.0	4	47	mm	59.99879837036133	151	121
Frame#	Time		LeftUpLeg_		RightUpLeg_		LeftLeg_		RightLeg_		LeftFoot_		RightFoot_		LeftToeBase_		RightToeBase_		Knee_Lateral_r		Knee_Lateral_l		Ankle_Lateral_r		Ankle_Lateral_l		LeftArm_		LeftForeArm_		LeftHand_		LeftHandEE		RightArm_		RightForeArm_		RightHand_		RightHandEE		Spine_		Spine1_		Spine2_		Spine3_		Spine4_		Spine5_		Spine_x		Spine_y		Spine_z		RASI		LASI		RIPS		LIPS		RTHI		LTHI		RTIB		LTIB		RTOE		LTOE		RHEE		LHEE		RHipAngles		LHipAngles		RKneeAngles		LKneeAngles		RAnkleAngles		LAnkleAngles
			X1	Y1	Z1	X2	Y2	Z2	X3	Y3	Z3	X4	Y4	Z4	X5	Y5	Z5	X6	Y6	Z6	X7	Y7	Z7	X8	Y8	Z8	X9	Y9	Z9	X10	Y10	Z10	X11	Y11	Z11	X12	Y12	Z12	X13	Y13	Z13	X14	Y14	Z14	X15	Y15	Z15	X16	Y16	Z16	X17	Y17	Z17	X18	Y18	Z18	X19	Y19	Z19	X20	Y20	Z20	X21	Y21	Z21	X22	Y22	Z22	X23	Y23	Z23	X24	Y24	Z24	X25	Y25	Z25	X26	Y26	Z26	X27	Y27	Z27	X28	Y28	Z28	X29	Y29	Z29	X30	Y30	Z30	X31	Y31	Z31	X32	Y32	Z32	X33	Y33	Z33	X34	Y34	Z34	X35	Y35	Z35	X36	Y36	Z36	X37	Y37	Z37	X38	Y38	Z38	X39	Y39	Z39	X40	Y40	Z40	X41	Y41	Z41	X42	Y42	Z42	X43	Y43	Z43	X44	Y44	Z44	X45	Y45	Z45	X46	Y46	Z46	X47	Y47	Z47

151	1.50000	-685.09998	821.67340	95.94102	-734.11951	825.57178	-62.55770	-608.86432	432.23712	58.26401	-925.77753	476.09564	-67.62274	-474.04785	90.70633	35.02013	-1021.68506	120.90872	-65.88338	-581.81207	23.83014	38.58603	-1142.65771	90.46523	-89.05835	-920.75336	471.33633	-112.84875	-610.55768	425.14914	103.43233	-998.50616	114.52796	-108.89851	-458.01044	87.62611	81.51304	-718.83160	1311.13525	146.82787	-774.18884	1059.85962	247.65877	-921.64417	880.80713	274.15079	-965.77478	809.67175	258.28726	-703.08795	1301.97266	-113.35165	-649.75909	1038.86304	-178.92743	-628.72235	813.49677	-236.13092	-617.51154	729.21277	-230.66031	-688.47174	913.99567	12.37706	-700.78198	1011.31049	18.25255	-687.87531	1081.86304	15.99007	-653.93604	1166.27563	9.05899	-657.11572	1299.24719	9.15151	4185915979477856304811803089567744.00000	0.00000	4185920931238013446332902686064640.00000	-702.22119	915.08911	-32.08011	-686.61572	960.50281	12.94694	-644.03986	912.39136	-1.40402	-837.47015	893.22217	-88.26181	-754.97351	886.66132	178.48123	-673.92578	886.00360	-31.79926	-651.92664	884.25403	39.33222	-814.09113	653.99219	-128.72887	-649.00024	630.02844	142.66006	-977.97272	317.71085	-105.21208	-547.44781	217.23059	76.26776	-1213.10144	89.92676	-101.47134	-653.27954	21.03124	37.46404	-983.57739	52.07187	-63.52002	-416.72437	37.04951	40.61105	-27.85935	5.08899	23.66504	14.85967	-3.25071	-20.06396	-7.85168	0.74854	-0.10853	-4.74756	0.79864	-0.03004	12.95215	2.35664	9.12842	-5.58179	3.71056	12.45997
152	1.51000	-699.88607	819.98436	95.42778	-748.76538	823.20302	-63.12847	-617.01061	431.96448	57.56580	-941.52474	474.31511	-66.19788	-475.50425	93.15057	35.09431	-1048.91445	122.57115	-63.65380	-581.76926	23.91784	37.75973	-1170.90422	96.00744	-86.01388	-936.53254	469.29052	-111.39819	-619.27734	424.67647	102.67437	-1025.86099	115.33130	-106.59437	-460.15700	90.20318	81.82422	-733.44335	1308.93235	146.50164	-791.90865	1058.52383	247.69996	-943.35011	882.70333	272.97443	-989.72230	813.22473	256.35544	-717.82739	1299.97527	-113.68409	-660.45150	1037.78711	-179.44620	-634.67925	813.02197	-236.94321	-621.02665	729.09540	-231.92874	-703.39883	912.00048	11.53349	-715.83164	1009.25787	17.15314	-702.93134	1079.75293	14.86169	-668.90868	1164.08386	8.06340	-671.86838	1297.00217	8.55688	4185915979477856304811803089567744.00000	0.00000	4185920931238013446332902686064640.00000	-717.10895	912.90327	-32.93982	-701.65403	958.51337	11.93978	-658.95039	910.45322	-2.20052	-852.25222	890.51459	-89.16861	-769.99160	885.09771	177.67126	-688.74473	883.88665	-32.52934	-666.80857	882.44216	38.62796	-829.30162	651.51620	-128.32310	-661.50803	628.76128	142.02086	-998.74340	317.65502	-103.45113	-551.88318	218.08534	75.67729	-1241.38237	97.78809	-97.95623	-653.14097	19.66595	36.01974	-1013.01929	52.57797	-61.50931	-417.06846	40.78316	41.18562	-28.17646	5.03854	23.61491	15.73110	-3.22747	-20.86718	-6.15358	0.69965	-0.11928	-4.92323	0.76076	-0.04571	13.01984	1.83982	9.20926	-5.44421	4.18097	12.60207
153	1.52000	-714.85575	818.52174	95.00394	-763.70900	820.79371	-63.57463	-625.81204	431.86356	56.97903	-957.48395	472.45428	-64.78543	-477.31331	96.00466	35.18510	-1074.53455	123.70176	-61.39487	-581.77190	24.06772	37.18218	-1197.40222	100.53118	-82.88299	-952.52189	467.18281	-109.96124	-628.53749	424.39965	102.03583	-1051.59453	115.70214	-104.26552	-462.54837	93.27836	82.11806	-748.13257	1306.72610	146.10541	-809.41970	1057.13740	247.68094	-964.69266	884.52067	271.93789	-1013.19426	816.66624	254.61935	-732.65017	1298.08411	-114.12768	-671.32244	1036.80530	-179.97916	-641.02405	812.65051	-237.71721	-624.95353	729.12720	-232.98467	-718.49962	910.07000	10.60759	-731.01201	1007.26836	15.85606	-718.09547	1077.68809	13.50474	-683.96914	1161.91919	6.88040	-686.68835	1294.76965	7.90595	4185915979477856304811803089567744.00000	0.00000	4185920931238013446332902686064640.00000	-732.20243	910.70726	-33.87198	-716.82954	956.58652	10.75949	-674.04597	908.51859	-3.10891	-867.29875	887.79526	-90.00265	-785.08201	883.97162	176.87476	-703.79171	881.73904	-33.29711	-681.86727	880.71943	37.87021	-844.76687	649.00769	-127.85897	-674.25635	627.72656	141.48481	-1018.92629	317.26714	-101.68104	-556.69016	219.25163	75.19850	-1267.90256	104.33931	-94.32079	-653.00170	18.09394	34.94548	-1040.57559	52.72017	-59.49177	-417.59660	45.16745	41.72494	-28.44873	5.11341	23.54560	16.57431	-3.30839	-21.58820	-4.73486	0.65956	-0.12464	-5.21920	0.71701	-0.04640	13.03290	1.30691	9.28733	-5.16062	4.61956	12.74031
154	1.53000	-730.19259	817.51195	94.75890	-779.24810	818.30333	-63.77153	-635.92374	432.10610	56.61512	-973.86713	470.43289	-63.39782	-479.82766	99.67845	35.30911	-1096.93604	123.76873	-59.07721	-581.86543	24.34198	37.10210	-1220.40320	103.01798	-79.57926	-968.93154	464.95134	-108.55152	-638.87859	424.51453	101.63611	-1074.08552	115.20794	-101.88725	-465.42935	97.34973	82.37720	-762.97675	1304.51316	145.56921	-826.51322	1055.64971	247.54149	-985.30844	886.18026	271.18101	-1035.71510	819.88479	253.27469	-747.63962	1296.40540	-114.79355	-682.55043	1036.01172	-180.54047	-648.14465	812.48572	-238.41461	-629.70394	729.45734	-233.61562	-733.94783	908.26893	9.51704	-746.45381	1005.40504	14.16367	-733.47582	1075.71377	11.69062	-699.20524	1159.80872	5.32255	-701.64294	1292.56213	7.14242	4185915979477856304811803089567744.00000	0.00000	4185920931238013446332902686064640.00000	-747.70736	908.49092	-34.94902	-732.27947	954.78488	9.23294	-689.51165	906.59097	-4.24109	-882.87422	885.05245	-90.69119	-800.31704	883.72058	176.10521	-719.29478	879.53013	-34.14023	-697.27952	879.17498	37.00548	-860.74161	646.43414	-127.27809	-687.48572	627.15674	141.15505	-1037.93363	316.21516	-99.89265	-562.24038	221.04103	74.94308	-1290.90127	108.27029	-90.44465	-652.86104	16.10853	34.61128	-1064.36069	52.13456	-57.46053	-418.49285	50.85303	42.19374	-28.63132	5.43890	23.43793	17.36108	-3.59765	-22.14482	-3.87489	0.63706	-0.11921	-5.75575	0.66154	-0.01713	12.93672	0.74184	9.35987	-4.58502	4.99449	12.87081
